<?xml version="1.0" encoding="utf-8"?>
<!-- Generator: Adobe Illustrator 16.0.0, SVG Export Plug-In . SVG Version: 6.00 Build 0)  -->
<!DOCTYPE svg PUBLIC "-//W3C//DTD SVG 1.1//EN" "http://www.w3.org/Graphics/SVG/1.1/DTD/svg11.dtd">
<svg version="1.1" id="Capa_1"  xmlns:dc="http://purl.org/dc/elements/1.1/" xmlns:cc="http://creativecommons.org/ns#" xmlns:rdf="http://www.w3.org/1999/02/22-rdf-syntax-ns#" xmlns:svg="http://www.w3.org/2000/svg" xmlns:sodipodi="http://sodipodi.sourceforge.net/DTD/sodipodi-0.dtd" xmlns:inkscape="http://www.inkscape.org/namespaces/inkscape"
	 xmlns="http://www.w3.org/2000/svg" xmlns:xlink="http://www.w3.org/1999/xlink" x="0px" y="0px"
	 viewBox="21.2 6.4 57.6 66.4" enable-background="new 21.2 6.4 57.6 66.4" xml:space="preserve">
	 <style>
		path{
			fill: #a6a6a6;
		}
		path:hover{
			fill: #666;
		}
	</style>
<path d="M50.134,6.4h-0.267c-3.456,0-6.267,2.812-6.267,6.267v1.146c-8.347,2.707-14.4,10.553-14.4,19.791v17.628
	c0,0.864-0.704,1.567-1.568,1.567H27.6h-0.048c-3.502,0-6.352,2.85-6.352,6.353v0.096c0,3.502,2.85,6.352,6.352,6.352H42.55
	c0.327,3.895,3.596,7.2,7.573,7.2h0.122c3.978,0,7.247-3.306,7.574-7.2h15.43c3.32,0,5.552-2.553,5.552-6.352v-0.096
	c0-3.799-2.231-6.353-5.552-6.353H73.2h-0.032c-0.865,0-1.568-0.703-1.568-1.567V33.804c0-9.568-6.434-17.657-15.199-20.183v-0.955
	C56.4,9.211,53.589,6.4,50.134,6.4z M46.8,12.667c0-1.69,1.376-3.066,3.066-3.066h0.267c1.691,0,3.067,1.376,3.067,3.066v0.301
	c-0.854-0.106-1.722-0.167-2.604-0.167h-0.592c-1.089,0-2.159,0.085-3.204,0.248V12.667z M50.244,69.6h-0.122
	c-2.212,0-4.048-1.873-4.359-4h8.84C54.292,67.727,52.456,69.6,50.244,69.6z M73.2,56h0.048c2.123,0,2.352,2.204,2.352,3.152v0.096
	c0,0.947-0.229,3.152-2.352,3.152H56.25H44.117H27.552c-1.737,0-3.152-1.415-3.152-3.152v-0.096c0-1.738,1.415-3.152,3.152-3.152
	H27.6h0.032h45.536H73.2z M68.4,33.804v17.428c0,0.55,0.098,1.076,0.27,1.567H32.129c0.172-0.491,0.271-1.018,0.271-1.567V33.604
	C32.4,23.897,40.298,16,50.004,16h0.592C60.414,16,68.4,23.986,68.4,33.804z"/>
</svg>
