<?xml version="1.0" encoding="utf-8"?>
<!-- Generator: Adobe Illustrator 16.0.0, SVG Export Plug-In . SVG Version: 6.00 Build 0)  -->
<!DOCTYPE svg PUBLIC "-//W3C//DTD SVG 1.1//EN" "http://www.w3.org/Graphics/SVG/1.1/DTD/svg11.dtd">
<svg version="1.1"
	 id="Capa_1" xmlns:dc="http://purl.org/dc/elements/1.1/" xmlns:cc="http://creativecommons.org/ns#" xmlns:rdf="http://www.w3.org/1999/02/22-rdf-syntax-ns#" xmlns:svg="http://www.w3.org/2000/svg" xmlns:sodipodi="http://sodipodi.sourceforge.net/DTD/sodipodi-0.dtd" xmlns:inkscape="http://www.inkscape.org/namespaces/inkscape"
	 xmlns="http://www.w3.org/2000/svg" xmlns:xlink="http://www.w3.org/1999/xlink" x="0px" y="0px"  viewBox="17.819 9.344 64.361 61.312" enable-background="new 17.819 9.344 64.361 61.312" xml:space="preserve"
	>
	<style>
		g{
			fill: #a6a6a6;
		}
		g:hover{
			fill: #666;
		}
	</style>
<g transform="translate(0,-952.36218)">
	<path d="M17.819,1000.618V984.81v-0.592h0.677h15.723v16.4H17.819z"/>
	<path d="M41.819,1000.618V984.81v-0.592h0.677h15.722v16.4H41.819z"/>
	<path d="M17.819,1023.018v-15.809v-0.592h0.677h15.723v16.4H17.819z"/>
	<path d="M41.819,1023.018v-15.809v-0.592h0.677h15.722v16.4H41.819z"/>
	<path d="M41.781,978.106v-15.808v-0.592h0.677h15.723v16.4H41.781z"/>
	<path d="M65.781,978.106v-15.808v-0.592h0.677h15.723v16.4H65.781z"/>
	<path d="M41.781,1000.506v-15.808v-0.592h0.677h15.723v16.4H41.781z"/>
	<path d="M65.781,1000.506v-15.808v-0.592h0.677h15.723v16.4H65.781z"/>
	<path d="M65.781,1023.018v-15.809v-0.592h0.677h15.723v16.4H65.781z"/>
	<path d="M17.819,978.106v-15.808v-0.592h0.677h15.723v16.4H17.819z"/>
</g>
</svg>
